<svg class="p-1.5" version="1.1" id="Capa_1" xmlns="http://www.w3.org/2000/svg"
    xmlns:xlink="http://www.w3.org/1999/xlink" viewBox="0 0 180.93 60.31" xml:space="preserve" fill="currentColor">
    <g id="SVGRepo_bgCarrier" stroke-width="0"></g>
    <g id="SVGRepo_tracerCarrier" stroke-linecap="round" stroke-linejoin="round"></g>
    <g id="SVGRepo_iconCarrier">
        <!-- First marker -->
        <g transform="translate(0,0)">
            <g>
                <path style="fill:currentColor;"
                    d="M56.982,27.892c-0.42-0.279-0.952-0.326-1.415-0.129l-16.745,7.131l-3.704-1.578 c2.857-4.031,10.438-15.25,10.438-20.775C45.556,5.625,39.93,0,33.014,0c-6.916,0-12.541,5.625-12.541,12.541 c0,4.609,5.275,13.18,8.685,18.238l-7.082-3.016c-0.015-0.008-0.032-0.008-0.047-0.014c-0.063-0.025-0.126-0.039-0.19-0.055 c-0.056-0.014-0.11-0.029-0.167-0.035c-0.062-0.008-0.122-0.008-0.185-0.008c-0.062,0-0.123,0-0.184,0.008 c-0.057,0.006-0.111,0.021-0.166,0.035c-0.065,0.016-0.129,0.029-0.191,0.055c-0.016,0.006-0.031,0.006-0.046,0.014L3.567,35.146 c-0.553,0.234-0.912,0.777-0.912,1.379V58.81c0,0.504,0.253,0.973,0.673,1.25c0.249,0.166,0.537,0.25,0.827,0.25 c0.199,0,0.398-0.041,0.588-0.121l16.745-7.131l16.745,7.131c0.035,0.016,0.072,0.021,0.107,0.033 c0.033,0.012,0.066,0.023,0.102,0.031c0.125,0.033,0.251,0.057,0.379,0.057s0.254-0.023,0.379-0.057 c0.035-0.008,0.068-0.02,0.102-0.031c0.035-0.012,0.072-0.018,0.107-0.033l17.333-7.381c0.554-0.236,0.912-0.779,0.912-1.381 V29.142C57.654,28.638,57.402,28.169,56.982,27.892z M33.016,2.814c5.363,0,9.726,4.363,9.726,9.727 c0,3.666-4.934,12.012-9.726,18.861c-4.793-6.85-9.727-15.195-9.727-18.861C23.289,7.177,27.652,2.814,33.016,2.814z M19.989,50.437L5.656,56.541V37.517l14.333-6.105V50.437z M37.322,56.541l-14.333-6.104V31.412l14.333,6.105V56.541z M54.654,50.437l-14.333,6.104V37.517l14.333-6.105V50.437z">
                </path>
                <path style="fill:currentColor;"
                    d="M38.164,13.609c0-2.838-2.311-5.148-5.148-5.148c-2.84,0-5.148,2.311-5.148,5.148 c0,2.84,2.309,5.148,5.148,5.148C35.853,18.757,38.164,16.449,38.164,13.609z M30.146,13.609c0-1.58,1.286-2.867,2.868-2.867 c1.581,0,2.867,1.287,2.867,2.867c0,1.582-1.286,2.869-2.867,2.869C31.434,16.478,30.146,15.191,30.146,13.609z">
                </path>
            </g>
        </g>
        <!-- Second marker -->
        <g transform="translate(60.31,0)">
            <g>
                <path style="fill:currentColor;"
                    d="M56.982,27.892c-0.42-0.279-0.952-0.326-1.415-0.129l-16.745,7.131l-3.704-1.578 c2.857-4.031,10.438-15.25,10.438-20.775C45.556,5.625,39.93,0,33.014,0c-6.916,0-12.541,5.625-12.541,12.541 c0,4.609,5.275,13.18,8.685,18.238l-7.082-3.016c-0.015-0.008-0.032-0.008-0.047-0.014c-0.063-0.025-0.126-0.039-0.19-0.055 c-0.056-0.014-0.11-0.029-0.167-0.035c-0.062-0.008-0.122-0.008-0.185-0.008c-0.062,0-0.123,0-0.184,0.008 c-0.057,0.006-0.111,0.021-0.166,0.035c-0.065,0.016-0.129,0.029-0.191,0.055c-0.016,0.006-0.031,0.006-0.046,0.014L3.567,35.146 c-0.553,0.234-0.912,0.777-0.912,1.379V58.81c0,0.504,0.253,0.973,0.673,1.25c0.249,0.166,0.537,0.25,0.827,0.25 c0.199,0,0.398-0.041,0.588-0.121l16.745-7.131l16.745,7.131c0.035,0.016,0.072,0.021,0.107,0.033 c0.033,0.012,0.066,0.023,0.102,0.031c0.125,0.033,0.251,0.057,0.379,0.057s0.254-0.023,0.379-0.057 c0.035-0.008,0.068-0.02,0.102-0.031c0.035-0.012,0.072-0.018,0.107-0.033l17.333-7.381c0.554-0.236,0.912-0.779,0.912-1.381 V29.142C57.654,28.638,57.402,28.169,56.982,27.892z M33.016,2.814c5.363,0,9.726,4.363,9.726,9.727 c0,3.666-4.934,12.012-9.726,18.861c-4.793-6.85-9.727-15.195-9.727-18.861C23.289,7.177,27.652,2.814,33.016,2.814z M19.989,50.437L5.656,56.541V37.517l14.333-6.105V50.437z M37.322,56.541l-14.333-6.104V31.412l14.333,6.105V56.541z M54.654,50.437l-14.333,6.104V37.517l14.333-6.105V50.437z">
                </path>
                <path style="fill:currentColor;"
                    d="M38.164,13.609c0-2.838-2.311-5.148-5.148-5.148c-2.84,0-5.148,2.311-5.148,5.148 c0,2.84,2.309,5.148,5.148,5.148C35.853,18.757,38.164,16.449,38.164,13.609z M30.146,13.609c0-1.58,1.286-2.867,2.868-2.867 c1.581,0,2.867,1.287,2.867,2.867c0,1.582-1.286,2.869-2.867,2.869C31.434,16.478,30.146,15.191,30.146,13.609z">
                </path>
            </g>
        </g>
        <!-- Third marker -->
        <g transform="translate(120.62,0)">
            <g>
                <path style="fill:currentColor;"
                    d="M56.982,27.892c-0.42-0.279-0.952-0.326-1.415-0.129l-16.745,7.131l-3.704-1.578 c2.857-4.031,10.438-15.25,10.438-20.775C45.556,5.625,39.93,0,33.014,0c-6.916,0-12.541,5.625-12.541,12.541 c0,4.609,5.275,13.18,8.685,18.238l-7.082-3.016c-0.015-0.008-0.032-0.008-0.047-0.014c-0.063-0.025-0.126-0.039-0.19-0.055 c-0.056-0.014-0.11-0.029-0.167-0.035c-0.062-0.008-0.122-0.008-0.185-0.008c-0.062,0-0.123,0-0.184,0.008 c-0.057,0.006-0.111,0.021-0.166,0.035c-0.065,0.016-0.129,0.029-0.191,0.055c-0.016,0.006-0.031,0.006-0.046,0.014L3.567,35.146 c-0.553,0.234-0.912,0.777-0.912,1.379V58.81c0,0.504,0.253,0.973,0.673,1.25c0.249,0.166,0.537,0.25,0.827,0.25 c0.199,0,0.398-0.041,0.588-0.121l16.745-7.131l16.745,7.131c0.035,0.016,0.072,0.021,0.107,0.033 c0.033,0.012,0.066,0.023,0.102,0.031c0.125,0.033,0.251,0.057,0.379,0.057s0.254-0.023,0.379-0.057 c0.035-0.008,0.068-0.02,0.102-0.031c0.035-0.012,0.072-0.018,0.107-0.033l17.333-7.381c0.554-0.236,0.912-0.779,0.912-1.381 V29.142C57.654,28.638,57.402,28.169,56.982,27.892z M33.016,2.814c5.363,0,9.726,4.363,9.726,9.727 c0,3.666-4.934,12.012-9.726,18.861c-4.793-6.85-9.727-15.195-9.727-18.861C23.289,7.177,27.652,2.814,33.016,2.814z M19.989,50.437L5.656,56.541V37.517l14.333-6.105V50.437z M37.322,56.541l-14.333-6.104V31.412l14.333,6.105V56.541z M54.654,50.437l-14.333,6.104V37.517l14.333-6.105V50.437z">
                </path>
                <path style="fill:currentColor;"
                    d="M38.164,13.609c0-2.838-2.311-5.148-5.148-5.148c-2.84,0-5.148,2.311-5.148,5.148 c0,2.84,2.309,5.148,5.148,5.148C35.853,18.757,38.164,16.449,38.164,13.609z M30.146,13.609c0-1.58,1.286-2.867,2.868-2.867 c1.581,0,2.867,1.287,2.867,2.867c0,1.582-1.286,2.869-2.867,2.869C31.434,16.478,30.146,15.191,30.146,13.609z">
                </path>
            </g>
        </g>
    </g>
</svg> 