<svg xmlns="http://www.w3.org/2000/svg" xml:space="preserve" class="p-1" viewBox="0 0 14.6 16">
    <g style="fill:currentColor">
        <path
            d="m57 16-1 1-17 7-16-7-1-1-3 5 2-1v19L6 45V26l6-2-2-3-6 3-1 1v23a1 1 0 0 0 2 1l17-7 8 3-3-4-3-2V20l14 6v1l3 2v-3l14-6v19l-14 6v-5l-3 5-2 3 3 1a1 1 0 0 0 1 0l17-7 1-2V18a1 1 0 0 0-1-2z"
            style="fill:currentColor" transform="matrix(.26458 0 0 .26458 -1 0)" />
        <g style="fill:currentColor">
            <g transform="translate(6 7) scale(.35114)" />
        </g>
        <g style="fill:currentColor">
            <g transform="translate(8) scale(.35114)">
                <path fill="currentColor" fill-rule="evenodd"
                    d="M111 419a2 2 0 1 1 0-3 2 2 0 0 1 0 3zm0-4a3 3 0 1 0 0 6 3 3 0 0 0 0-6zm0 12c-1 0-6-7-6-9a6 6 0 0 1 11 0l-5 9zm0-16c-4 0-7 3-7 7 0 3 6 11 7 11s7-8 7-11c0-4-3-7-7-7z"
                    style="stroke-width:.563967" transform="translate(-104 -411)" />
            </g>
        </g>
        <g style="fill:currentColor">
            <g transform="translate(6 7) scale(.35114)">
                <path fill="currentColor" fill-rule="evenodd"
                    d="M111 419a2 2 0 1 1 0-3 2 2 0 0 1 0 3zm0-4a3 3 0 1 0 0 6 3 3 0 0 0 0-6zm0 12c-1 0-6-7-6-9a6 6 0 0 1 11 0l-5 9zm0-16c-4 0-7 3-7 7 0 3 6 11 7 11s7-8 7-11c0-4-3-7-7-7z"
                    style="stroke-width:.563967" transform="translate(-104 -411)" />
            </g>
        </g>
        <g style="fill:currentColor">
            <g transform="translate(1 1) scale(.35114)">
                <path fill="currentColor" fill-rule="evenodd"
                    d="M111 419a2 2 0 1 1 0-3 2 2 0 0 1 0 3zm0-4a3 3 0 1 0 0 6 3 3 0 0 0 0-6zm0 12c-1 0-6-7-6-9a6 6 0 0 1 11 0l-5 9zm0-16c-4 0-7 3-7 7 0 3 6 11 7 11s7-8 7-11c0-4-3-7-7-7z"
                    style="stroke-width:.563967" transform="translate(-104 -411)" />
            </g>
        </g>
        <g style="fill:currentColor">
            <g transform="translate(1 1) scale(.35114)" />
        </g>
    </g>
</svg>