<?xml version="1.0" encoding="UTF-8" standalone="no"?>
<!-- Created with Inkscape (http://www.inkscape.org/) -->

<svg
   width="119.50066mm"
   height="31.220737mm"
   viewBox="0 0 119.50066 31.220737"
   version="1.1"
   id="svg1"
   xml:space="preserve"
   xmlns="http://www.w3.org/2000/svg"
   xmlns:svg="http://www.w3.org/2000/svg"><defs
     id="defs1" /><g
     id="layer1"
     transform="translate(-45.289257,-132.82088)"><g
       style="fill:none;stroke-width:1.00157481;stroke-dasharray:none"
       id="g1"
       transform="matrix(0.26458333,0,0,0.26458333,45.289257,132.82088)"><g
         id="g2"
         style="stroke-width:1.00157481;stroke-dasharray:none"><path
           d="M 34.2412,0 29.442,8.18716 C 26.8021,12.6904 23.4869,18.397 22.0756,20.8677 20.6642,23.3384 15.1205,32.9072 9.75539,42.1315 L 0,58.9032 4.32694,66.3308 8.65262,73.7584 9.81443,72.0199 C 11.1672,69.9962 13.5309,62.7828 13.5309,60.678 v -1.4464 l -3.0483,1.4664 c -1.67679,0.8065 -3.16453,1.3505 -3.30578,1.2096 -0.14126,-0.141 0.72962,-1.3469 1.9355,-2.6798 1.20588,-1.3329 3.63078,-4.9801 5.38828,-8.1057 1.7575,-3.1256 4.1183,-6.4918 5.2463,-7.4802 1.1281,-0.9884 1.9523,-1.8965 1.8313,-2.018 -0.121,-0.1215 0.9683,-0.3043 2.4215,-0.4061 1.4533,-0.1018 3.5263,-0.7273 4.6071,-1.39 2.4007,-1.472 6.7887,-2.3897 6.7887,-1.4201 0,0.3723 -0.8085,1.1543 -1.7974,1.7372 -5.6421,3.326 -9.7784,18.3236 -7.1378,25.8826 1.2145,3.4767 5.0889,4.4361 7.4631,1.8475 1.5986,-1.7429 2.0413,-3.0968 2.4819,-7.5831 0.1852,-1.8854 0.6484,-3.803 1.0287,-4.2602 0.8848,-1.064 2.6621,-1.0864 2.2821,-0.0289 -0.5635,1.5686 0.8256,3.0483 2.8612,3.0483 4.059,0 6.7676,-2.7375 16.6647,-16.8356 1.9162,-2.7296 3.8097,-4.9677 4.2076,-4.9734 1.4427,-0.021 2.035,6.9144 0.8553,10.0108 -0.3692,0.9693 -2.5853,3.9453 -4.926,6.6129 -2.3407,2.6676 -4.8227,6.1275 -5.5151,7.6896 -1.1559,2.6075 -1.1967,3.2985 -0.4936,8.4328 0.5698,4.1612 0.583,6.2704 0.0502,8.2448 -0.8445,3.1297 -4.0265,6.9716 -6.7586,8.1596 -1.5086,0.656 -1.6491,0.8503 -0.6305,0.8699 2.583,0.0494 6.9939,-2.7744 8.4818,-5.4298 0.7911,-1.4118 1.5284,-2.8203 1.6378,-3.1297 0.3068,-0.8667 5.4235,1.9319 10.6434,5.8208 6.4741,4.8231 10.5047,6.6001 14.9854,6.6079 4.3934,0.0076 7.4749,-1.1992 10.8632,-4.254 l 2.5585,-2.3063 -0.0064,1.8387 c -0.009,2.6176 -2.6354,7.8823 -5.2011,10.4245 -1.2032,1.1921 -3.7796,2.9248 -5.7249,3.8504 -3.0796,1.465 -4.3268,1.677 -9.6461,1.638 -5.2186,-0.038 -6.6673,-0.297 -9.935,-1.785 -2.104,-0.9574 -4.8253,-2.5022 -6.0477,-3.4327 l -2.2231,-1.692 0.4358,2.7198 c 0.4887,3.0499 1.9239,5.5749 3.7128,6.5299 2.6635,1.423 1.2146,2.038 -4.1097,1.746 -5.5132,-0.302 -8.7634,-1.482 -13.183,-4.789 -1.8981,-1.42 -2.09,-1.455 -2.09,-0.376 0,2.374 3.4377,6.591 6.5651,8.052 1.6656,0.778 3.0401,1.62 3.0546,1.871 0.0145,0.251 -1.4731,0.901 -3.3058,1.444 -6.2153,1.842 -11.8546,1.008 -15.646,-2.314 l -2.2244,-1.949 1.6592,3.744 c 0.9124,2.059 1.9328,4.254 2.2671,4.877 0.5709,1.065 2.692,1.122 35.0689,0.966 l 34.4613,-0.165 7.197,-12.514 c 3.958,-6.8824 11.589,-20.124 16.958,-29.4257 L 137,58.9182 129.921,46.6312 C 126.028,39.8735 118.428,26.6915 113.034,17.3382 L 103.226,0.332148 68.7336,0.165447 Z m 68.4728,10.9208 c 3.97,0 4.358,0.7789 1.146,2.3 -2.693,1.2756 -5.8809,4.9327 -6.4154,7.3612 -0.2256,1.0253 0.1565,3.2588 0.9383,5.4785 1.7831,5.0635 1.6741,6.3295 -0.77,8.8778 -1.5178,1.5828 -3.5331,2.645 -7.3614,3.8818 -2.8993,0.9366 -5.9837,2.2623 -6.854,2.9454 -4.327,3.3966 -2.937,-0.5243 2.1879,-6.1717 3.5092,-3.8669 3.9161,-5.6418 2.2207,-9.6912 -0.5306,-1.2671 -0.9647,-3.4313 -0.9647,-4.8093 0,-2.106 0.4524,-2.9569 2.8349,-5.3344 3.2389,-3.2322 7.567,-4.8381 13.0377,-4.8381 z m -24.8241,4.9747 c 0.137,-0.0444 0.3125,0.0131 0.5351,0.1329 2.9949,1.6123 6.4479,7.6805 6.4734,11.3758 0.0214,3.0876 -1.046,5.2816 -4.2089,8.6559 -3.6566,3.9011 -4.1786,5.35 -3.714,10.3154 0.3489,3.7281 0.2439,4.2052 -1.3414,6.0853 -1.3192,1.5644 -2.9687,2.4205 -7.0776,3.6711 -2.9467,0.897 -6.831,2.6426 -8.6325,3.8793 -5.6294,3.8643 -5.1575,2.7015 1.8966,-4.6651 6.0507,-6.3188 6.8446,-8.567 5.294,-14.9944 -1.4862,-6.1608 -1.011,-7.3071 3.9527,-9.5295 5.2595,-2.3549 6.3857,-4.2541 6.3566,-10.724 -0.0136,-3.0203 0.0551,-4.0693 0.466,-4.2027 z m 15.1249,0.1592 c -1.0681,0 -2.9469,4.3958 -2.8801,6.7382 l 0.0729,2.567 0.5036,-2.9731 c 0.2769,-1.6353 1,-3.7289 1.6065,-4.6526 0.6064,-0.9236 0.9198,-1.6795 0.6971,-1.6795 z m 10.0822,23.926 c 0.48,0.2005 1.101,1.2063 1.658,2.9329 1.755,5.4431 -0.389,9.3651 -5.9262,10.8431 -1.8645,0.4977 -3.3326,1.3781 -4.0029,2.399 -1.3775,2.098 -2.1787,2.0438 -2.2709,-0.1529 -0.1795,-4.2788 1.0528,-6.3724 4.8972,-8.3187 3.3858,-1.714 4.8228,-3.4438 4.8228,-5.8045 0,-1.4943 0.341,-2.0994 0.822,-1.8989 z m -32.0146,1.5642 c -0.0906,-0.0642 -0.037,0.2143 0.1419,0.821 0.7333,2.4872 0.3779,5.7 -0.839,7.588 l -1.1066,1.7172 1.3741,-1.2108 c 1.943,-1.7138 2.4634,-5.1781 1.1543,-7.6808 -0.3991,-0.763 -0.6342,-1.1703 -0.7247,-1.2346 z m 24.1316,0.1793 c 3.6413,0 4.1183,0.7495 1.2346,1.9415 -1.0826,0.4475 -2.7353,1.8171 -3.6725,3.0432 -1.4555,1.9044 -1.7548,3.0573 -2.0511,7.9127 -0.3128,5.1261 -0.5217,5.8596 -2.1314,7.4639 l -1.7848,1.7786 H 75.7321 64.6554 l -4.6623,2.3376 c -2.5643,1.2861 -4.6623,2.1197 -4.6623,1.8525 0,-0.9833 6.5304,-6.5442 8.7933,-7.4878 1.2847,-0.5356 4.4779,-1.3816 7.0952,-1.8813 7.006,-1.3377 7.7717,-1.9505 10.0405,-8.0192 2.0204,-5.4043 7.5413,-8.9417 13.9542,-8.9417 z m -71.3185,1.9252 c -0.3537,0 -0.8214,0.2888 -1.0399,0.6417 -0.2186,0.353 -0.1088,0.6418 0.2449,0.6418 0.3537,0 0.8226,-0.2888 1.0412,-0.6418 0.2186,-0.3529 0.1075,-0.6417 -0.2462,-0.6417 z m 63.5061,12.6555 c -0.1513,-0.0801 -0.5032,0.3436 -0.9131,1.1418 -0.5436,1.0589 -1.4657,2.2862 -2.0485,2.7274 -0.5829,0.4412 -0.736,0.8022 -0.3404,0.8022 0.9825,0 3.3861,-3.1407 3.3812,-4.4182 -6e-4,-0.1433 -0.0287,-0.2265 -0.0792,-0.2532 z m 8.7644,3.067 0.1985,2.7475 c 0.1391,1.9231 -0.3042,3.8432 -1.4771,6.3998 -2.0898,4.5554 -3.1944,5.807 -6.4383,7.2935 -3.8473,1.763 -7.0108,1.4867 -13.183,-1.1506 -5.1029,-2.1804 -5.9249,-2.3392 -12.3779,-2.3953 -7.3269,-0.0637 -7.9954,-0.4546 -4.3797,-2.5619 4.9322,-2.8746 12.4563,-3.5898 20.8648,-1.9841 7.4717,1.4268 12.2005,-0.3553 15.3119,-5.7706 z m -56.4599,6.7959 c -0.1364,0.035 -0.3836,0.7935 -0.8139,2.389 -1.1268,4.1782 -4.0443,8.5354 -7.222,10.7817 -2.7763,1.9625 -0.7737,1.4732 2.1754,-0.5315 3.6056,-2.451 6.1052,-7.3311 6.0087,-11.7305 -0.0136,-0.6176 -0.0549,-0.9326 -0.1482,-0.9087 z m 51.8127,2.9468 c -0.2292,0.0478 -0.7788,0.3402 -1.7082,0.8874 -1.3276,0.7817 -4.0583,1.6313 -6.0677,1.8888 l -3.6537,0.4688 3.0747,0.084 c 3.3809,0.0925 6.7083,-1.0326 8.1376,-2.7525 0.3553,-0.4275 0.4466,-0.6243 0.2173,-0.5765 z m -29.6945,5.3143 c 3.8525,0.0068 8.2363,0.9329 11.8341,2.5845 5.5257,2.5366 10.9361,3.148 15.0872,1.7034 1.5778,-0.5491 2.9841,-0.8838 3.1249,-0.7433 0.461,0.4601 -2.5002,4.1476 -4.6359,5.7732 -1.1491,0.8746 -3.3361,2.0293 -4.8595,2.5656 -1.5234,0.5364 -2.9493,0.9449 -3.1702,0.9088 -3.9719,-0.65 -4.6492,-0.99 -9.9978,-5.0299 -2.1751,-1.643 -5.8263,-3.6677 -8.1125,-4.4997 -5.3596,-1.9505 -5.8091,-2.4102 -2.8963,-2.9555 1.1175,-0.2092 2.3419,-0.3093 3.626,-0.3071 z m 9.9049,6.3222 1.369,1.4075 c 0.7532,0.7746 2.3448,1.638 3.5369,1.919 2.6988,0.636 3.073,0.6368 5.0617,0.0012 1.2461,-0.3982 0.8121,-0.5288 -1.9292,-0.5803 -2.3442,-0.0439 -4.2959,-0.519 -5.7877,-1.4075 z M 44.548,95.6426 c -0.0862,-6e-4 -0.1495,0.2427 -0.1495,0.6217 0,0.4664 1.169,1.958 2.5987,3.3152 3.594,3.4115 3.9189,3.0925 0.589,-0.5803 -1.5201,-1.6765 -2.8589,-3.1682 -2.9754,-3.3152 -0.0219,-0.0276 -0.0429,-0.0412 -0.0629,-0.0414 z m 38.6636,1.4878 c -0.3983,-0.0045 -1.1416,0.1724 -1.9079,0.4713 -2.1786,0.8496 -8.8727,1.0296 -11.1822,0.3008 -0.8842,-0.279 -1.4053,-0.2926 -1.158,-0.0313 0.2473,0.2612 1.4048,0.7164 2.5723,1.0115 3.4446,0.8705 13.1377,-0.4964 11.9471,-1.6846 -0.0442,-0.0441 -0.1385,-0.0661 -0.2713,-0.0677 z m -51.867375,5.89132 1.399875,2.04728 c 1.3866,2.018 3.9474,4.138 5.8668,4.857 2.128,0.798 2.128,0.386 0,-0.885 -1.2379,-0.739 -3.3828,-2.398 -4.7666,-3.687 z"
           fill="#ff0000"
           id="path1"
           style="stroke-width:1.00157;stroke-dasharray:none" /><path
           d="m 164.052,0 c 0,0 0,1.93457 0,1.93457 0,1.06401 -0.125,2.5564 -0.277,3.31641 -0.162,0.81068 -0.093,1.38183 0.166,1.38183 0.243,0 0.554,-0.5598 0.691,-1.24365 0.137,-0.68385 0.637,-1.72336 1.112,-2.31026 0.748,-0.92347 1.317,-1.0897 4.229,-1.23674 0,0 3.365,-0.17013 3.365,-0.17013 0,0 0,12.15407 0,12.15407 0,13.3552 0.088,12.9232 -2.767,13.6008 -0.89,0.2113 0.915,0.3402 4.756,0.3402 3.842,0 5.647,-0.1289 4.756,-0.3402 -2.854,-0.6777 -2.766,-0.2456 -2.766,-13.6008 0,0 0,-12.15407 0,-12.15407 0,0 3.364,0.17013 3.364,0.17013 3.027,0.15285 3.47,0.29283 4.422,1.39911 0.582,0.67632 1.058,1.60477 1.058,2.06325 0,0.4585 0.199,0.95689 0.442,1.10719 0.488,0.30156 0.61,-3.74981 0.163,-5.416791 C 186.766,0.994919 186.5,0 186.5,0 H 175.276 Z M 2.62204,0.0182037 C 0.760529,0.0294037 0,0.144699 0,0.376617 0,0.655792 0.585693,0.88443 1.30151,0.88443 c 2.53504,0 2.67818,0.70982 2.67818,13.27947 0,12.4578 -0.03326,12.6221 -2.67471,13.244 -1.018573,0.2398 0.53262,0.3593 4.66456,0.3593 4.00904,0 5.66666,-0.1233 4.70426,-0.3507 -2.60178,-0.6146 -2.81348,-1.1246 -2.87766,-6.923 0,0 -0.05789,-5.238 -0.05789,-5.238 0,0 3.17395,0.1555 3.17395,0.1555 3.8132,0.1868 6.0624,-0.458 7.9999,-2.293 C 21.5455,10.624 21.8342,6.18111 19.54,3.45467 17.4313,0.948578 15.323,0.375183 7.23561,0.108032 5.25211,0.0425262 3.73889,0.0115356 2.62201,0.0182343 Z M 10.1254,1.78522 c 1.1822,0.0108 2.5612,0.30774 3.4503,0.84984 3.6519,2.2267 3.9032,8.48474 0.4318,10.75934 C 12.862,14.1449 8.43106,14.4749 7.81169,13.8556 7.26547,13.3094 7.4785,2.86807 8.04747,2.2991 8.40533,1.94124 9.20595,1.77684 10.1254,1.78522 Z M 199.94,5.02563 c -0.337,0.004 -0.669,0.02811 -0.994,0.0716 -4.6,0.61719 -8.86,4.61542 -9.506,8.92317 -1.131,7.5458 2.624,13.5202 8.949,14.239 4.131,0.4694 6.68,-0.3873 9.304,-3.1273 4.679,-4.8869 4.284,-13.628 -0.797,-17.65207 -2.002,-1.5862 -4.598,-2.48742 -6.956,-2.45449 z M 59.7558,5.03864 c -1.9387,-0.0217 -3.9082,0.56292 -5.8944,1.75407 -8.911,5.34409 -6.1832,20.31319 3.9123,21.46939 3.9819,0.4561 6.767,-0.4809 9.3032,-3.1299 C 72.0165,19.9732 71.1985,10.7146 65.468,6.92226 63.6028,5.68791 61.6945,5.06038 59.7558,5.03864 Z M 23.9092,5.50241 c -0.2775,-1.4e-4 -0.4732,0.0863 -0.4732,0.22974 0,0.19128 0.5707,0.46237 1.2687,0.60196 0.831,0.16621 1.3631,0.60505 1.5416,1.2713 0.1499,0.5596 0.2754,4.80349 0.2789,9.43099 0.0066,9.0483 -0.2274,10.1063 -2.3197,10.5098 -0.5451,0.1051 1.1982,0.1917 3.8734,0.1917 2.6753,0 4.3666,-0.092 3.7586,-0.2038 -2.0327,-0.3738 -2.2109,-0.8334 -2.2109,-5.7001 0,0 0,-4.5886 0,-4.5886 h 5.3062 5.3063 c 0,0 0,4.1024 0,4.1024 0,4.4509 -0.5258,5.8512 -2.3258,6.1984 -0.5451,0.1051 1.1982,0.1951 3.8734,0.1995 2.6753,0.0039 4.2727,-0.1189 3.5496,-0.2738 -2.2595,-0.484 -2.4799,-1.5323 -2.3448,-11.1549 0.1314,-9.3546 0.319,-10.12627 2.4606,-10.12627 0.6187,0 1.0033,-0.12115 0.855,-0.26945 -0.359,-0.35895 -9.1636,-0.47182 -9.1633,-0.11745 1e-4,0.15201 0.5707,0.39069 1.2687,0.53028 1.5648,0.31297 1.8126,1.11984 1.8205,5.93669 0,0 0.006,3.6481 0.006,3.6481 h -5.3063 -5.3063 c 0,0 0,-4.3675 0,-4.3675 0,-4.63171 0.1921,-5.1078 2.211,-5.47897 C 32.4454,5.96065 31.152,5.82706 28.9632,5.77534 26.7743,5.72354 24.6353,5.61414 24.2096,5.53265 24.1032,5.51216 24.0016,5.50246 23.9091,5.50246 Z m 202.8188,0.0872 c -1.418,-0.00199 -2.539,0.04781 -2.539,0.16497 0,0.12472 0.448,0.4232 0.995,0.66328 0.631,0.2768 1.369,1.38104 2.018,3.01932 0,0 1.022,2.58402 1.022,2.58402 0,0 -1.853,5.2562 -1.853,5.2562 -1.02,2.891 -2.027,5.1487 -2.239,5.0178 -0.212,-0.131 -0.385,-0.4458 -0.385,-0.7004 0,-0.2547 -1.011,-3.3133 -2.246,-6.7961 -1.236,-3.4828 -2.181,-6.78585 -2.101,-7.341 0.091,-0.63308 0.558,-1.12359 1.252,-1.31532 0.608,-0.16814 0.956,-0.33435 0.773,-0.36964 -1.014,-0.19637 -7.956,-0.0638 -8.177,0.15632 -0.143,0.14371 0.181,0.26167 0.722,0.26167 1.227,0 1.928,1.545 6.062,13.36837 1.679,4.7992 3.228,8.6705 3.443,8.6028 0.43,-0.1351 1.055,-1.6802 3.573,-8.8455 0.924,-2.6307 1.833,-4.6206 2.021,-4.4218 0.187,0.1987 1.382,3.296 2.655,6.8832 1.272,3.5873 2.486,6.5223 2.696,6.5223 0.21,0 0.382,-0.0591 0.382,-0.1313 0,-0.3583 6.3,-18.44108 6.919,-19.86042 0.442,-1.01163 1.152,-1.78693 1.852,-2.02008 1.751,-0.58371 0.608,-0.79131 -2.802,-0.50955 -1.702,0.14065 -2.672,0.29127 -2.155,0.33423 2.186,0.18138 2.137,0.93603 -0.577,8.89302 -1.416,4.1495 -2.675,7.5455 -2.799,7.5457 -0.123,10e-5 -1.392,-3.3826 -2.819,-7.5164 -2.127,-6.16196 -2.494,-7.63561 -2.042,-8.18044 0.303,-0.3655 0.958,-0.66414 1.455,-0.66414 0.497,0 0.788,-0.11591 0.647,-0.25737 -0.2,-0.19962 -3.389,-0.34145 -5.753,-0.34374 z m -91.029,0.02511 c -1.784,0.01469 -3.043,0.1076 -3.043,0.24441 0,0.1824 0.391,0.33164 0.869,0.33164 0.478,0 1.554,0.60093 2.39,1.3352 2.14,1.87912 7.042,9.14783 6.63,9.83173 -0.182,0.3033 -1.793,2.3749 -3.581,4.6041 -2.209,2.7556 -3.845,4.3484 -5.11,4.9746 0,0 -1.861,0.9207 -1.861,0.9207 0,0 3.98,-0.0277 3.98,-0.0277 2.833,-0.0197 3.693,-0.1427 2.984,-0.4275 -0.547,-0.22 -0.994,-0.7781 -0.994,-1.2402 0,-0.6234 4.08,-6.492 5.542,-7.9723 0.273,-0.2757 5.07,7.3338 5.07,8.0414 0,0.368 -0.547,0.869 -1.216,1.1132 -0.95,0.3468 -0.15,0.4518 3.648,0.4785 0,0 4.864,0.0337 4.864,0.0337 0,0 -1.537,-0.773 -1.537,-0.773 -1.103,-0.5545 -2.565,-2.2831 -5.172,-6.1129 0,0 -3.635,-5.3399 -3.635,-5.3399 0,0 3.269,-4.1671 3.269,-4.1671 2.252,-2.87124 3.783,-4.39653 4.926,-4.90466 0,0 1.658,-0.73755 1.658,-0.73755 0,0 -3.667,-0.1468 -3.667,-0.1468 -2.017,-0.0808 -3.75,-0.0121 -3.851,0.15286 -0.102,0.16501 0.264,0.364 0.812,0.44218 0.549,0.0782 1.063,0.48604 1.143,0.90596 0.139,0.72774 -4.2,6.89971 -4.887,6.95061 -0.615,0.0457 -4.394,-6.08801 -4.241,-6.88324 0.084,-0.43576 0.649,-0.9306 1.256,-1.09943 1.446,-0.40237 1.463,-0.39962 -4.314,-0.51559 -0.684,-0.0137 -1.337,-0.0179 -1.932,-0.013 z M 78.5997,5.63031 c -2.9616,-4.4e-4 -5.2393,0.07381 -5.5498,0.19777 -0.5706,0.22792 -0.4793,0.30807 0.3757,0.33165 2.1088,0.0581 2.1885,0.44884 2.1885,10.67817 0,10.1997 -0.0184,10.2886 -2.2109,10.7014 -0.608,0.1145 2.8558,0.1833 7.6968,0.1529 0,0 8.8014,-0.0553 8.8014,-0.0553 0,0 0.8145,-2.3966 0.8145,-2.3966 0.4478,-1.3182 0.7445,-2.4657 0.6598,-2.5504 -0.0847,-0.0847 -0.6986,0.6324 -1.3646,1.5934 -0.666,0.9611 -1.8193,1.9594 -2.5633,2.2188 -1.8547,0.6465 -7.5434,0.6059 -8.2081,-0.0588 -0.344,-0.3441 -0.5303,-2.1324 -0.5303,-5.0852 0,0 0,-4.5549 0,-4.5549 0,0 3.3924,0 3.3924,0 3.6102,0 5.0092,0.6365 5.0092,2.2792 0,0.4487 0.199,0.8161 0.4422,0.8161 0.2603,0 0.4422,-1.5561 0.4422,-3.7845 0,-2.4105 -0.1606,-3.6856 -0.4422,-3.5116 -0.2432,0.1503 -0.4422,0.6356 -0.4422,1.0779 0,1.4581 -1.2454,1.9764 -4.7976,1.9976 0,0 -3.3829,0.0199 -3.3829,0.0199 V 11.2759 6.85402 c 0,0 3.9192,-0.12868 3.9192,-0.12868 4.3548,-0.14277 5.8028,0.39678 6.2917,2.3448 0.4629,1.84426 0.8527,1.22936 0.6918,-1.09164 0,0 -0.152,-2.19194 -0.152,-2.19194 0,0 -7.9395,-0.12955 -7.9395,-0.12955 C 80.65,5.63921 79.5869,5.63042 78.5997,5.63022 Z M 95.8822,5.645 c -1.0856,-0.003 -1.9023,0.07731 -1.9864,0.21419 -0.1121,0.18241 0.2829,0.33165 0.8783,0.33165 0.5954,0 1.5012,0.34821 2.0123,0.77382 0.8879,0.73927 0.9307,1.18727 0.9656,10.04164 0.033,8.3711 -0.0388,9.3233 -0.7436,9.8387 -0.4292,0.3138 -1.1521,0.5708 -1.6064,0.5708 -0.4543,0 -0.7332,0.1493 -0.6201,0.3317 0.2271,0.3661 7.6851,0.3789 8.0501,0.0137 0.126,-0.1257 -0.379,-0.3499 -1.121,-0.4984 -0.907,-0.1814 -1.491,-0.6448 -1.7835,-1.4137 -0.504,-1.3256 -0.5989,-15.2501 -0.1036,-15.2098 0.1821,0.0148 3.5151,3.9897 7.4071,8.8326 3.891,4.8429 7.224,8.8107 7.406,8.817 0.183,0.007 0.335,-4.4162 0.339,-9.8275 0.007,-10.80704 0.225,-11.94606 2.332,-12.19037 0.668,-0.0773 1.13,-0.27634 1.028,-0.44217 -0.102,-0.16587 -2.045,-0.23212 -4.319,-0.14771 -3.821,0.14185 -4.016,0.1921 -2.589,0.66329 1.182,0.39053 1.61,0.81991 1.826,1.8361 0.429,2.00846 0.442,13.48676 0.015,13.48676 -0.205,0 -3.279,-3.5642 -6.83,-7.9206 0,0 -6.458,-7.92047 -6.458,-7.92047 0,0 -2.9407,-0.14941 -2.9407,-0.14941 C 96.636,5.65633 96.244,5.64581 95.8822,5.64482 Z m 29.4748,0.0354 c -2.182,0.002 -4.364,0.08811 -4.533,0.2565 -0.139,0.13979 0.163,0.25391 0.672,0.25391 2.143,0 2.317,0.75993 2.311,10.09169 -0.004,4.7859 -0.127,9.1494 -0.273,9.6971 -0.168,0.624 -0.784,1.1457 -1.653,1.3974 -1.028,0.298 -0.131,0.3959 3.479,0.3808 2.675,-0.0112 4.367,-0.1119 3.759,-0.2237 -2.192,-0.4029 -2.211,-0.4957 -2.211,-10.6962 0,-10.20541 0.089,-10.64707 2.152,-10.64707 0.6,0 0.973,-0.11777 0.829,-0.26168 -0.168,-0.16813 -2.35,-0.25053 -4.532,-0.24873 z m 146.746,0.00901 c -2.426,-0.0287 -4.138,0.03329 -4.138,0.17015 0,0.1824 0.491,0.33163 1.091,0.33163 0.625,0 1.285,0.36454 1.547,0.85503 0.546,1.02023 0.62,18.54578 0.082,19.39408 -0.199,0.3143 -0.943,0.7449 -1.652,0.9569 -0.906,0.2708 0.157,0.3765 3.576,0.3567 2.675,-0.0155 4.331,-0.1094 3.68,-0.209 -1.926,-0.2946 -2.176,-1.0001 -2.039,-5.7217 0.125,-4.2867 0.145,-4.3562 1.204,-4.3562 0.867,0 1.813,1.0157 4.843,5.1957 0,0 3.765,5.1957 3.765,5.1957 0,0 3.117,-0.0449 3.117,-0.0449 2.871,-0.0416 3,-0.0825 1.638,-0.5182 -0.814,-0.2602 -2.047,-1.0415 -2.742,-1.7359 -1.392,-1.3921 -6.361,-8.2935 -6.108,-8.4836 0.087,-0.0657 0.785,-0.369 1.552,-0.6737 4.247,-1.6887 4.909,-7.19399 1.161,-9.65382 -0.955,-0.62691 -2.498,-0.82108 -7.95,-0.99924 -0.931,-0.0304 -1.819,-0.05 -2.627,-0.0596 z m -8.117,0.0596 c 0,0 -8.733,0.06039 -8.733,0.06039 -4.803,0.0331 -8.236,0.1465 -7.628,0.25218 2.083,0.36203 2.211,0.98775 2.204,10.71612 -0.003,5 -0.169,9.3482 -0.369,9.6625 -0.199,0.3143 -0.943,0.745 -1.652,0.9569 -0.843,0.2523 1.714,0.3984 7.404,0.4232 0,0 8.693,0.038 8.693,0.038 0,0 0.895,-2.6531 0.895,-2.6531 0.493,-1.4592 0.724,-2.6531 0.513,-2.6531 -0.21,0 -0.498,0.363 -0.639,0.8066 -0.14,0.4436 -0.863,1.3888 -1.605,2.1004 -1.302,1.2485 -1.5,1.2938 -5.633,1.2938 0,0 -4.284,0 -4.284,0 l -0.125,-4.9747 -0.125,-4.9746 c 0,0 3.246,0 3.246,0 3.621,0 4.563,0.4447 5.156,2.4329 0.297,0.9977 0.395,0.2855 0.393,-2.875 -0.002,-3.2602 -0.092,-3.8882 -0.406,-2.806 -0.494,1.7079 -2.097,2.3638 -5.772,2.3638 0,0 -2.588,0 -2.588,0 v -4.643 -4.64297 c 0,0 4.201,0 4.201,0 3.611,0 4.325,0.12412 5.085,0.88437 0.487,0.4864 0.885,1.1713 0.885,1.52174 0,0.35045 0.199,0.75998 0.442,0.9103 0.272,0.16846 0.442,-0.58518 0.442,-1.96395 z m -63.938,0.50697 c 4.672,-0.0215 7.357,3.92862 7.328,10.90092 -0.021,4.8439 -1.069,7.2932 -3.965,9.2644 -1.944,1.3228 -4.685,1.3223 -6.682,-7e-4 -4.541,-3.0084 -5.34,-13.5568 -1.367,-18.03214 1.371,-1.54445 1.968,-1.87663 3.726,-2.0745 0.329,-0.037 0.649,-0.05639 0.96,-0.0579 z m -141.1766,0.002 c 0.3627,-0.0107 0.7436,4.4e-4 1.1443,0.03371 2.1505,0.17834 2.67,0.41455 3.9253,1.7843 2.5209,2.75071 3.4544,7.97931 2.3474,13.14131 -0.5264,2.4547 -2.0203,4.5427 -3.971,5.5515 -1.2314,0.6367 -3.9735,0.8109 -5.2752,0.3351 -1.1536,-0.4217 -2.706,-2.0581 -3.6886,-3.8882 -0.7983,-1.4868 -0.95,-2.5088 -0.9518,-6.4117 -0.0022,-3.9664 0.1467,-4.9468 1.0235,-6.7269 1.2665,-2.57159 2.9077,-3.74411 5.4461,-3.81907 z M 276.753,6.63971 c 4.584,0.091 6.947,6.19159 2.61,8.83599 -0.845,0.5156 -2.23,0.8834 -3.327,0.8844 0,0 -1.88,0.002 -1.88,0.002 0,0 0,-4.6343 0,-4.6343 0,-4.57803 0.013,-4.63855 1.108,-4.91333 0.517,-0.1297 1.015,-0.18389 1.489,-0.17446 z M 3.87172,34.748 c -1.17598,0.007 -2.10179,0.0661 -2.10213,0.1917 -3e-4,0.1248 0.44687,0.4232 0.99408,0.6633 0.96782,0.4246 0.99852,0.639 1.11669,7.8946 0.12715,7.807 -0.00841,8.465 -1.81194,8.8161 -0.52954,0.1031 0.8279,0.2017 3.01672,0.2194 3.03626,0.0245 3.7202,-0.0714 2.88631,-0.4042 C 7.37032,51.889 6.72681,51.4535 6.54126,51.1616 6.0275,50.3534 6.12177,37.2148 6.64835,36.2309 c 0.25177,-0.4704 0.88159,-0.855 1.39996,-0.855 0.5184,0 0.81107,-0.1312 0.65034,-0.2919 C 8.48482,34.8701 5.83167,34.7365 3.87173,34.748 Z M 208.639,38.9982 c -3.585,-0.0491 -6.561,2.9201 -6.558,7.0569 0.003,3.0246 1.884,5.6692 4.642,6.5257 2.681,0.8329 5.298,-0.2882 7.224,-3.0953 2.228,-3.2465 0.396,-8.9281 -3.269,-10.1375 -0.69,-0.2279 -1.375,-0.3407 -2.039,-0.3498 z m 49.939,0.1201 c -0.172,0.0649 -1.391,2.7107 -2.772,6.0222 -1.467,3.5206 -2.983,6.4893 -3.495,6.8478 -0.835,0.5849 -0.736,0.6317 1.296,0.6193 1.709,-0.0105 2.026,-0.1135 1.425,-0.4638 -0.904,-0.5263 -0.972,-1.2584 -0.261,-2.8181 0.47,-1.0324 0.744,-1.1262 3.282,-1.1262 0,0 2.769,0 2.769,0 0,0 0.517,1.5649 0.517,1.5649 0.399,1.209 0.394,1.7117 -0.02,2.211 -0.459,0.5533 -0.196,0.6442 1.839,0.6322 2.112,-0.0126 2.287,-0.0818 1.573,-0.6228 -0.441,-0.3346 -1.96,-3.3227 -3.374,-6.6397 -1.414,-3.3169 -2.658,-6.1181 -2.765,-6.2252 -0.003,-0.003 -0.008,-0.003 -0.014,-0.0019 z m -113.064,0.196 c -0.33,-0.028 -1.033,1.4484 -3.196,6.5896 -1.26,2.9957 -2.699,5.7292 -3.2,6.0801 -0.844,0.5914 -0.751,0.636 1.289,0.6236 1.709,-0.0105 2.026,-0.1135 1.425,-0.4638 -0.904,-0.5263 -0.972,-1.2583 -0.261,-2.8181 0.47,-1.0323 0.744,-1.1262 3.282,-1.1262 0,0 2.769,0 2.769,0 0,0 0.517,1.565 0.517,1.565 0.399,1.2089 0.394,1.7117 -0.02,2.2109 -0.459,0.5533 -0.196,0.6437 1.839,0.6322 1.711,-0.01 2.175,-0.1307 1.658,-0.4327 -0.395,-0.2306 -1.869,-3.1592 -3.277,-6.5085 -1.407,-3.3492 -2.637,-6.1831 -2.733,-6.2977 -0.028,-0.0326 -0.058,-0.0515 -0.092,-0.0544 z m -52.8006,0.0233 c -1.6175,0.008 -2.9514,0.1923 -2.5952,0.5484 0.3575,0.3576 0.5302,2.3816 0.5302,6.2053 0,5.4712 -0.0356,5.6884 -0.9949,6.0741 -0.745,0.2994 -0.2729,0.3998 1.8793,0.3998 2.1522,0 2.6243,-0.1004 1.8793,-0.3998 -0.8776,-0.3528 -0.9949,-0.714 -0.9949,-3.0668 0,-3.7365 0.9629,-3.6273 3.7586,0.4275 2.0548,2.9802 2.2018,3.0953 3.9412,3.0935 0,0 1.807,-0.002 1.807,-0.002 0,0 -1.36,-0.8291 -1.36,-0.8291 -1.6306,-0.9943 -4.7868,-5.155 -4.3934,-5.7916 0.1532,-0.2479 0.5601,-0.4508 0.9042,-0.4508 0.3443,0 0.945,-0.6178 1.3352,-1.3724 0.8761,-1.6941 0.2719,-3.5569 -1.4008,-4.3191 C 96.2317,39.5004 94.331,39.33 92.7134,39.3373 Z m -41.8618,0.0182 c -2.9185,0 -5.309,0.1493 -5.3123,0.3317 -0.0037,0.1824 -0.1252,0.8291 -0.2712,1.4371 0,0 -0.266,1.1054 -0.266,1.1054 0,0 0.7393,-0.9949 0.7393,-0.9949 0.5485,-0.7387 1.1875,-0.9949 2.4821,-0.9949 0,0 1.7437,0 1.7437,0 0,0 0,5.7622 0,5.7622 0,5.5628 -0.0346,5.777 -0.9949,6.163 -0.745,0.2995 -0.2729,0.3999 1.8793,0.3999 2.1522,0 2.6242,-0.1004 1.8793,-0.3999 -0.9605,-0.386 -0.995,-0.6001 -0.995,-6.163 0,0 0,-5.7622 0,-5.7622 0,0 1.7472,0 1.7472,0 1.1971,0 1.8882,0.2435 2.1971,0.7738 0.3853,0.6616 0.4523,0.5974 0.4638,-0.4422 0,0 0.0138,-1.216 0.0138,-1.216 z m 21.9729,0 c -3.4708,0 -4.344,0.1176 -3.9313,0.5303 0.3575,0.3576 0.5302,2.3816 0.5302,6.2053 0,5.4686 -0.036,5.6893 -0.9949,6.0827 -0.6758,0.2772 0.6255,0.3786 4.0583,0.3169 0,0 5.0541,-0.0907 5.0541,-0.0907 l 0.614,-1.5476 0.6149,-1.5477 c 0,0 -1.1538,1.216 -1.1538,1.216 -1.0069,1.0615 -1.4885,1.2161 -3.7888,1.2161 0,0 -2.635,0 -2.635,0 v -2.8743 -2.8742 c 0,0 2.2247,0 2.2247,0 1.8944,0 2.2851,0.148 2.6255,0.995 0.3194,0.7944 0.403,0.5493 0.4146,-1.2161 0.0112,-1.7086 -0.0878,-2.0351 -0.4362,-1.4371 -0.3331,0.5721 -1.021,0.7739 -2.6393,0.7739 0,0 -2.1893,0 -2.1893,0 V 42.4511 39.798 c 0,0 2.4001,0 2.4001,0 2.3504,0 3.7905,0.7119 3.7905,1.8741 0,0.2664 0.1093,0.3753 0.2427,0.2419 0.1334,-0.1335 0.1114,-0.7642 -0.0484,-1.4009 -0.2894,-1.153 -0.3079,-1.1573 -4.7526,-1.1573 z m 96.0915,0 c -4.286,0 -5.307,0.1205 -5.307,0.627 0,0.3449 -0.11,0.9916 -0.246,1.4371 -0.189,0.6237 -0.074,0.5813 0.497,-0.1848 0.547,-0.7331 1.192,-0.9949 2.456,-0.9949 0,0 1.715,0 1.715,0 0,0 0,5.7622 0,5.7622 0,5.5629 -0.034,5.777 -0.995,6.163 -0.745,0.2995 -0.273,0.3999 1.88,0.3999 2.152,0 2.624,-0.1004 1.879,-0.3999 -0.96,-0.386 -0.995,-0.6001 -0.995,-6.163 0,0 0,-5.7622 0,-5.7622 0,0 1.715,0 1.715,0 1.264,0 1.91,0.2617 2.456,0.9949 0.572,0.7661 0.686,0.8085 0.497,0.1848 -0.135,-0.4455 -0.246,-1.0922 -0.246,-1.4371 0,-0.5065 -1.02,-0.627 -5.306,-0.627 z m -54.161,0.007 c -1.721,0.007 -1.742,0.0237 -0.671,0.5648 1.082,0.5463 1.108,0.6816 1.229,6.1932 0.121,5.5064 0.101,5.6439 -0.884,6.0396 -0.777,0.312 -0.4,0.405 1.645,0.405 2.021,0 2.416,-0.0953 1.658,-0.3999 -0.939,-0.3775 -0.994,-0.6493 -0.994,-4.8364 0,-2.4399 0.093,-4.4357 0.207,-4.4357 0.114,0 1.924,2.1391 4.024,4.7535 2.099,2.6144 3.995,4.8201 4.214,4.9012 0.224,0.083 0.398,-2.6517 0.398,-6.2649 0,-4.7156 0.146,-6.4705 0.553,-6.6345 0.304,-0.1227 -0.218,-0.2391 -1.16,-0.2582 -1.419,-0.0289 -1.624,0.071 -1.199,0.5838 0.331,0.3981 0.469,2.0669 0.386,4.6801 0,0 -0.127,4.0617 -0.127,4.0617 0,0 -3.752,-4.6801 -3.752,-4.6801 -3.649,-4.5514 -3.801,-4.6795 -5.527,-4.6732 z m 113.193,0.006 c -1.714,4e-4 -1.734,0.0178 -0.664,0.5588 1.079,0.5451 1.109,0.6906 1.231,6.0688 0.109,4.7965 0.026,5.5829 -0.637,6.068 -0.647,0.4726 -0.397,0.5532 1.643,0.5295 1.891,-0.022 2.193,-0.1142 1.411,-0.4284 -0.943,-0.379 -0.994,-0.6377 -0.978,-4.947 0,0 0.016,-4.5462 0.016,-4.5462 0,0 1.526,1.7687 1.526,1.7687 0.84,0.9728 2.673,3.2046 4.074,4.9591 1.401,1.7545 2.697,3.1971 2.88,3.2058 0.182,0.009 0.331,-2.8547 0.331,-6.3633 0,-5.7037 0.082,-6.4011 0.774,-6.5819 0.426,-0.1112 -0.209,-0.2257 -1.411,-0.2539 -1.865,-0.0437 -2.073,0.0308 -1.419,0.5087 0.649,0.4749 0.746,1.1896 0.637,4.7026 0,0 -0.128,4.142 -0.128,4.142 0,0 -3.759,-4.6956 -3.759,-4.6956 -3.648,-4.5577 -3.811,-4.6961 -5.527,-4.6957 z m -206.3249,0.008 c -1.0024,-0.008 -0.9022,0.0737 -0.0543,0.6676 0.9262,0.6488 0.9828,1.006 0.9828,6.2053 0,5.3076 -0.0377,5.5312 -0.9949,5.916 -0.7577,0.3045 -0.3622,0.3999 1.6582,0.3999 2.0204,0 2.4158,-0.0953 1.6582,-0.3999 -0.9391,-0.3775 -0.9949,-0.6493 -0.9949,-4.8364 0,-2.4399 0.0775,-4.4357 0.1727,-4.4357 0.0951,0 1.9357,2.1913 4.0902,4.8692 0,0 3.9175,4.8684 3.9175,4.8684 0,0 0.108,-5.4211 0.108,-5.4211 0.1267,-6.3479 0.2903,-7.2777 1.3291,-7.5492 0.4255,-0.1111 -0.0965,-0.2256 -1.1598,-0.2539 -1.6098,-0.0427 -1.8474,0.0524 -1.4199,0.5675 0.3304,0.398 0.4682,2.0667 0.3861,4.6783 0,0 -0.1278,4.0592 -0.1278,4.0592 0,0 -3.7586,-4.6499 -3.7586,-4.6499 -3.4413,-4.2578 -3.8883,-4.6531 -5.2942,-4.6784 -0.1892,-0.003 -0.3551,-0.006 -0.4983,-0.007 z m 166.5279,0.0207 c -1.216,0.0154 -1.962,0.1287 -1.658,0.2513 0.403,0.1628 0.552,1.8188 0.552,6.1337 0,5.1627 -0.098,5.9679 -0.773,6.3616 -0.59,0.3432 -0.147,0.4535 1.853,0.4638 2.197,0.0112 2.506,-0.0767 1.892,-0.5389 -1.007,-0.7579 -1.247,-11.6913 -0.271,-12.3096 0.401,-0.2539 -0.156,-0.3802 -1.595,-0.3619 z m 91.09,0.007 c -1.459,0.0118 -2.354,0.1349 -1.989,0.2738 1.171,0.446 1.312,1.1308 1.319,6.3962 0.007,4.8458 -0.055,5.2138 -0.976,5.859 -0.914,0.6405 -0.638,0.6883 3.974,0.6883 0,0 4.956,0 4.956,0 0,0 0.67,-1.6021 0.67,-1.6021 0.902,-2.1602 0.854,-2.2238 -0.476,-0.6425 -1.041,1.2366 -1.383,1.3602 -3.759,1.3602 0,0 -2.613,0 -2.613,0 0,0 0,-5.7288 0,-5.7288 0,-4.9873 0.1,-5.7843 0.774,-6.1768 0.585,-0.3408 0.127,-0.4455 -1.88,-0.4292 z m -70.368,0.4569 c 1.225,-0.0285 1.705,0.2043 2.5,1.0502 0.901,0.9597 1.111,1.6956 1.247,4.3769 0.176,3.4849 -0.512,5.5785 -2.115,6.4359 -1.091,0.5841 -3.11,0.5617 -4.155,-0.0458 -2.184,-1.2692 -2.829,-7.5092 -1.05,-10.1565 0.864,-1.2852 1.298,-1.5221 3,-1.634 0.208,-0.0137 0.398,-0.0227 0.573,-0.0267 z M 94.1177,39.9037 c 1.9684,0.0251 3.3361,2.2937 2.2231,4.2863 -0.4731,0.8468 -1.0536,1.1707 -2.2792,1.273 0,0 -1.6444,0.1373 -1.6444,0.1373 0,0 0,-2.6505 0,-2.6505 0,-2.1993 0.1402,-2.6947 0.8256,-2.9123 0.3003,-0.0953 0.5937,-0.1374 0.8749,-0.1338 z M 257.984,42.117 c 0.06,-0.0613 0.623,1.0828 1.253,2.5426 0,0 1.145,2.654 1.145,2.654 h -2.374 -2.375 c 0,0 1.122,-2.5426 1.122,-2.5426 0.618,-1.3985 1.17,-2.5927 1.229,-2.654 z m -112.979,0.1909 c 0.013,0.003 0.025,0.009 0.035,0.0207 0.16,0.1885 0.712,1.3875 1.226,2.6643 0,0 0.933,2.3215 0.933,2.3215 h -2.374 -2.374 c 0,0 1.149,-2.6643 1.149,-2.6643 0.593,-1.3738 1.199,-2.3775 1.405,-2.3422 z"
           fill="currentColor"
           transform="translate(162,32.575)"
           id="path2"
           style="stroke-width:1.00157481;stroke-dasharray:none" /><path
           style="fill:#ffffff;fill-opacity:1;stroke:#ffffff;stroke-width:0.0625984;stroke-dasharray:none;stroke-opacity:1"
           d="m 40.049456,113.49884 c -2.419377,-0.177 -4.695363,-0.88352 -6.544257,-2.03149 -0.735863,-0.45689 -1.054168,-0.70286 -2.197782,-1.69832 l -0.988498,-0.86044 0.184215,-0.11663 c 0.101318,-0.0641 0.174112,-0.13499 0.161763,-0.15742 C 30.553829,108.43277 9.2162718,73.578772 9.1756892,73.532815 c -0.034524,-0.0391 -0.1002308,-0.03194 -0.1833353,0.01995 -0.071239,0.04449 -0.1398551,0.07056 -0.1524792,0.05794 -0.012624,-0.01262 0.2309122,-0.401292 0.5411919,-0.863706 0.3102797,-0.462413 0.7413734,-1.192315 0.9579854,-1.622002 0.946141,-1.876833 2.140539,-5.266526 2.782319,-7.896203 0.366457,-1.50155 0.450198,-2.116859 0.428536,-3.148789 l -0.01866,-0.888742 -1.8125,0.872528 c -0.996875,0.47989 -2.121875,1.003891 -2.5,1.164448 -1.2161433,0.516388 -2.03125,0.755751 -2.03125,0.596494 0,-0.173834 0.7090089,-1.123917 1.7096322,-2.290934 1.6161258,-1.884872 3.3975578,-4.526421 5.4811348,-8.127552 2.237432,-3.867045 3.997529,-6.381059 5.402983,-7.717289 1.031102,-0.980316 1.652666,-1.644261 1.766994,-1.887478 0.132472,-0.281814 0.284416,-0.328193 1.499405,-0.457672 1.752698,-0.186782 2.064478,-0.234658 2.874454,-0.441387 1.041995,-0.265947 1.932775,-0.613488 2.734147,-1.066738 1.292467,-0.73101 2.670182,-1.250285 4.239145,-1.597776 0.865786,-0.191753 2.148076,-0.205461 2.347777,-0.0251 0.173566,0.156758 0.167432,0.212005 -0.062,0.558387 -0.209926,0.31693 -0.971069,0.957585 -1.581186,1.330884 -0.596947,0.365243 -0.899393,0.608227 -1.528554,1.228038 -2.930055,2.886509 -5.457728,9.150937 -6.221863,15.419879 -0.256322,2.102866 -0.285712,4.857487 -0.06868,6.4375 0.193498,1.40871 0.539064,2.707563 0.939503,3.53125 0.636295,1.30883 1.852569,2.291174 3.167603,2.558368 1.761414,0.357891 3.34651,-0.352443 4.645073,-2.081613 1.087183,-1.447695 1.448541,-2.71272 1.870082,-6.546696 0.211122,-1.920187 0.45173,-3.151693 0.795045,-4.069283 0.17596,-0.470297 0.577992,-0.893109 1.051095,-1.105425 0.666428,-0.299075 1.192523,-0.278903 1.410709,0.05409 0.09726,0.14843 0.09689,0.185144 -0.0056,0.563641 -0.220153,0.81331 -0.0038,1.556237 0.626952,2.152766 0.591107,0.559045 1.344287,0.8179 2.379809,0.8179 3.928443,0 6.634691,-2.696749 15.962278,-15.90625 1.862351,-2.637416 3.087985,-4.218622 4.061412,-5.239679 0.692446,-0.726328 0.858931,-0.773401 1.219556,-0.344824 0.32979,0.391934 0.622307,1.306034 0.817053,2.553253 0.157789,1.010536 0.194143,3.613136 0.06595,4.721314 -0.121261,1.048239 -0.343312,2.005692 -0.589699,2.542693 -0.489679,1.067257 -2.255852,3.419792 -4.822457,6.423493 -2.849167,3.334384 -4.898963,6.234947 -5.680977,8.038866 -0.952065,2.196184 -1.011767,3.195884 -0.445581,7.461134 0.379316,2.857504 0.446966,3.576967 0.482794,5.134549 0.04712,2.048288 -0.08181,3.068824 -0.559398,4.427951 -0.84399,2.401854 -3.145101,5.34794 -5.297124,6.781845 -0.326563,0.217591 -1.009783,0.595552 -1.518268,0.839914 -0.906944,0.435848 -1.072193,0.56278 -0.924696,0.710276 0.122035,0.122036 1.2104,0.07962 1.831826,-0.07139 1.988052,-0.483106 4.465694,-1.994336 6.075857,-3.70595 0.801073,-0.851545 1.190777,-1.470681 2.453803,-3.898446 0.397406,-0.763886 0.515033,-0.941364 0.635171,-0.958366 0.251126,-0.03554 1.187365,0.293733 2.102557,0.739459 2.145851,1.045094 4.78037,2.720735 8.231002,5.235188 4.589923,3.344646 7.182504,4.845196 9.994304,5.784558 1.753513,0.585811 3.146,0.804214 5.118444,0.802798 2.751325,-0.002 4.68625,-0.408457 6.739112,-1.415722 1.607488,-0.788736 2.7595,-1.637661 5.135888,-3.784661 l 1.40625,-1.270508 0.019,0.808627 c 0.01044,0.444745 -0.01246,1.084681 -0.05091,1.42208 -0.3191,2.800019 -2.769393,7.516902 -5.120231,9.856562 -1.278094,1.272018 -3.808619,2.972372 -5.910356,3.971383 -2.561381,1.21749 -3.833681,1.48677 -7.397725,1.5657 -3.053325,0.0676 -6.418731,-0.0946 -7.928834,-0.38218 -1.600281,-0.30475 -3.781792,-1.17205 -6.209756,-2.468785 -2.105844,-1.124703 -3.137299,-1.782755 -4.892899,-3.121594 -0.682943,-0.52082 -1.251865,-0.936794 -1.264272,-0.924387 -0.05049,0.05049 0.602046,3.743141 0.753647,4.264848 0.717108,2.467798 1.859633,4.135008 3.494429,5.099188 1.309818,0.77251 1.492103,1.17334 0.660337,1.45204 -0.904819,0.30318 -4.054814,0.30711 -6.777427,0.008 -3.322772,-0.36448 -5.734614,-1.14226 -8.360551,-2.69614 -0.918173,-0.54333 -1.577201,-0.98722 -2.983199,-2.00932 -1.201063,-0.87313 -1.607246,-1.10688 -1.810997,-1.04222 -0.161891,0.0514 -0.204618,0.21574 -0.202164,0.77766 0.0028,0.63656 0.14264,1.14722 0.544466,1.98794 0.568668,1.1898 1.343107,2.25814 2.493291,3.43949 1.222181,1.25531 2.188846,1.97831 3.569154,2.66951 1.907737,0.9553 2.994414,1.62962 2.956619,1.83465 -0.02938,0.15938 -1.284817,0.75748 -2.293765,1.09277 -2.927122,0.97273 -5.914856,1.40998 -8.394648,1.22855 z m 0.185926,-3.23507 c 0.04417,-0.13447 -0.405538,-0.49058 -1.500617,-1.18827 -1.947719,-1.24093 -3.530968,-2.50587 -5.879961,-4.6978 -0.81892,-0.76417 -1.500805,-1.37753 -1.515301,-1.36304 -0.03076,0.0308 1.374621,2.09801 1.822783,2.68122 0.737672,0.95996 2.056639,2.18999 3.311359,3.08809 1.343105,0.96136 3.635781,1.86325 3.761737,1.4798 z m 9.702118,-8.3504 c 0,-0.25718 -0.863702,-1.31935 -3.012403,-3.704612 C 46.124106,97.31958 45.275459,96.37448 45.039214,96.108535 44.80297,95.842591 44.574219,95.625 44.530879,95.625 c -0.211532,0 -0.204934,0.6825 0.01072,1.108728 0.507457,1.002972 3.02771,3.613692 4.727875,4.897582 0.488424,0.36885 0.668028,0.44468 0.668028,0.28206 z M 77.625,99.03124 c 3.133219,-0.311772 5.562887,-0.904685 5.916062,-1.443695 0.0833,-0.127126 0.0883,-0.184501 0.0277,-0.317503 -0.07281,-0.159813 -0.08194,-0.16184 -0.587331,-0.13031 -0.382187,0.02384 -0.728887,0.104357 -1.356775,0.315078 -1.939256,0.650822 -4.164525,0.90222 -7.436956,0.840189 -1.993213,-0.03778 -2.923756,-0.135015 -4.022563,-0.420316 -0.705055,-0.183064 -1.188181,-0.247473 -1.266773,-0.168881 -0.170547,0.170547 0.743436,0.649193 1.916211,1.00351 1.351437,0.408292 2.024131,0.479158 4.216675,0.444219 0.89375,-0.01424 2.060937,-0.06927 2.59375,-0.122291 z M 31.052088,80.434122 c 0.89606,-0.356952 2.653556,-1.422566 3.572912,-2.166345 0.681295,-0.551183 1.717512,-1.638867 2.274244,-2.387202 1.913345,-2.571835 2.973394,-5.639804 2.975243,-8.610881 4.9e-4,-0.786977 -0.05506,-1.144694 -0.177744,-1.144694 -0.103022,0 -0.323335,0.615669 -0.733433,2.049599 -0.729978,2.55241 -1.596831,4.442906 -3.003454,6.550148 -1.096895,1.643244 -2.747285,3.420123 -4.116106,4.431574 -1.268098,0.937024 -1.598341,1.24706 -1.499202,1.407471 0.06078,0.09834 0.198556,0.07309 0.70754,-0.12967 z M 23.696966,44.757431 c 0.156166,-0.09904 0.344485,-0.265098 0.418486,-0.369023 0.147017,-0.206466 0.178422,-0.569534 0.05955,-0.688408 -0.255728,-0.255728 -1.104034,0.128549 -1.34688,0.610129 -0.139474,0.276585 -0.136456,0.484091 0.0084,0.579539 0.165445,0.108993 0.580662,0.04518 0.860417,-0.132237 z"
           id="path4" /><path
           style="fill:#ffffff;fill-opacity:1;stroke:#ffffff;stroke-width:0.0625984;stroke-dasharray:none;stroke-opacity:1"
           d="M 78.90625,87.146369 C 78.8375,87.131722 78.345312,87.034957 77.8125,86.931336 75.224515,86.428026 74.178516,85.855625 69.580647,82.426634 67.609089,80.956287 65.859304,79.894435 63.46875,78.717645 62.678125,78.328447 61.567187,77.835383 61,77.621947 58.828421,76.804771 58.008934,76.471753 57.359928,76.14272 c -0.634641,-0.321751 -0.95336,-0.579717 -0.90367,-0.731416 0.05251,-0.160307 0.468896,-0.349757 1.092403,-0.49703 4.267784,-1.008051 10.435709,-0.269122 15.415124,1.846762 2.019674,0.858212 2.492972,1.052363 3.080764,1.263758 1.759465,0.632777 3.52841,1.072965 5.335941,1.327809 0.976387,0.13766 3.792587,0.158826 4.65076,0.03495 0.933242,-0.134708 1.932187,-0.379533 3.146649,-0.771191 C 90.474731,78.198143 91.26218,78 91.62742,78 c 0.215264,0 0.2475,0.01835 0.246969,0.140625 -0.0025,0.575034 -1.450124,2.505967 -3.152229,4.204635 -1.308281,1.305639 -2.142666,1.908928 -3.935765,2.845691 -1.40436,0.733675 -2.563148,1.186576 -4.398631,1.71916 -0.892145,0.258864 -1.168525,0.302939 -1.481514,0.236258 z m 1.626082,-2.704888 c 0.780858,-0.187224 1.695323,-0.4955 1.782912,-0.601038 0.05495,-0.06621 0.05943,-0.115766 0.01453,-0.160664 -0.08191,-0.08191 -0.963832,-0.158025 -2.798529,-0.241521 C 76.682358,83.308607 75.534859,82.968352 73.130302,81.540259 72.398471,81.105616 71.767801,80.75 71.728813,80.75 c -0.03899,0 0.322485,0.395744 0.803274,0.879431 1.598829,1.608465 2.748177,2.215545 5.124163,2.706558 1.282277,0.264991 2.087651,0.294532 2.876082,0.105492 z"
           id="path5" /><path
           style="fill:#ffffff;fill-opacity:1;stroke:#ffffff;stroke-width:0.0625984;stroke-dasharray:none;stroke-opacity:1"
           d="M 82.4375,76.83574 C 80.558792,76.605466 78.426388,75.945747 75.25,74.612085 71.504055,73.039286 70.12836,72.61806 68.15625,72.440042 c -0.4125,-0.03724 -0.8625,-0.0808 -1,-0.0968 -0.1375,-0.01601 -1.839063,-0.05753 -3.78125,-0.09228 -4.668044,-0.08352 -6.076759,-0.189385 -6.691249,-0.502875 -0.614508,-0.313498 -0.135666,-0.843198 1.775547,-1.964126 2.665885,-1.563543 5.965513,-2.480079 10.039492,-2.788666 1.25767,-0.09526 4.937939,-0.04033 6.25121,0.09331 1.400834,0.142551 2.650882,0.319016 4.25,0.599956 2.428415,0.426636 3.210572,0.507284 4.90625,0.505881 1.982128,-0.0016 3.508922,-0.264234 4.986548,-0.857639 1.414831,-0.568188 2.361165,-1.196264 3.50177,-2.324103 1.072896,-1.060889 1.603028,-1.801239 2.886682,-4.031367 0.5846,-1.015642 0.824581,-1.381919 0.85557,-1.305833 0.08027,0.197065 0.248924,3.198074 0.20718,3.686454 -0.168137,1.967146 -0.748818,3.706636 -2.216603,6.640066 -1.325077,2.648222 -2.33249,3.877455 -4.0148,4.89881 -0.761114,0.462083 -2.205427,1.134308 -3.028108,1.409368 -1.288346,0.430753 -1.764248,0.510522 -3.178239,0.532723 -0.6875,0.0108 -1.348438,0.0076 -1.46875,-0.0072 z m 3.09375,-4.500664 c 1.820614,-0.248687 3.525837,-0.850344 4.697837,-1.657547 0.809224,-0.557344 1.570098,-1.403344 1.407962,-1.56548 -0.09083,-0.09083 -0.363735,0.02696 -1.375206,0.593536 -0.979553,0.548699 -1.611379,0.838812 -2.511843,1.153354 -1.767538,0.617419 -2.877021,0.855913 -5.59375,1.20243 -1.1,0.140304 -2.028125,0.266048 -2.0625,0.27943 -0.08496,0.03308 0.103837,0.04442 1.625,0.09761 1.605702,0.05615 2.902192,0.02101 3.8125,-0.103333 z"
           id="path6" /><path
           style="fill:#ffffff;fill-opacity:1;stroke:#ffffff;stroke-width:0.125197;stroke-dasharray:none;stroke-opacity:1"
           d="m 55.512625,67.78125 c 0.755039,-0.981744 1.341834,-1.59384 2.539737,-2.649241 2.661492,-2.344884 5.000264,-4.041947 6.295814,-4.568375 1.141502,-0.463834 4.189799,-1.257147 7.413458,-1.929335 4.48778,-0.93578 5.643681,-1.396054 6.891961,-2.744345 0.778817,-0.841217 1.450985,-2.079676 2.280857,-4.202454 1.129413,-2.888986 2.031743,-4.304595 3.790459,-5.946613 2.341021,-2.185683 5.356364,-3.488815 8.962589,-3.873335 1.899876,-0.202578 4.266638,0.0049 4.507818,0.395098 0.139709,0.226055 -0.43101,0.696592 -1.424793,1.17469 -1.301697,0.626232 -2.29123,1.354731 -3.34035,2.459181 -2.043005,2.150753 -2.412123,3.365559 -2.804068,9.228479 -0.185922,2.781125 -0.436865,4.399707 -0.807713,5.209747 -0.211705,0.462424 -0.724228,1.098998 -1.645239,2.043455 L 86.83541,63.75 H 75.803197 64.770985 l -3.373984,1.669775 C 58.094682,67.054084 55.949813,68 55.546332,68 c -0.173084,0 -0.177901,-0.03126 -0.03371,-0.21875 z m 29.454032,-7.1875 c 1.23679,-1.001208 2.524293,-3.004506 2.530598,-3.9375 0.0041,-0.604815 -0.282749,-0.509254 -0.750406,0.25 -1.065997,1.730676 -1.821817,2.763442 -2.322883,3.174029 -0.301931,0.24741 -0.548966,0.555561 -0.548966,0.684778 0,0.371277 0.522736,0.289247 1.091657,-0.171307 z"
           id="path7" /><path
           style="fill:#ffffff;fill-opacity:1;stroke:#ffffff;stroke-width:0.125197;stroke-dasharray:none;stroke-opacity:1"
           d="m 92.925623,57.361965 c -0.332198,-0.366953 -0.407352,-2.888875 -0.125912,-4.225208 0.442616,-2.101625 1.708952,-3.740291 3.765993,-4.873277 2.408844,-1.326754 3.380357,-1.960523 4.112476,-2.682782 1.15413,-1.138603 1.69682,-2.450449 1.69682,-4.101774 0,-0.699379 0.28081,-1.478924 0.53273,-1.478924 0.25543,0 0.77621,0.608123 1.12401,1.3125 0.75732,1.533781 1.21826,3.426337 1.21826,5.002019 0,2.162549 -0.53817,3.500352 -1.98807,4.942017 -1.12465,1.11826 -2.2952,1.769661 -4.26193,2.371721 -1.877249,0.574668 -3.120565,1.248083 -3.845732,2.082957 -1.346861,1.550618 -1.695932,1.913786 -1.8395,1.913786 -0.08306,0 -0.258177,-0.118366 -0.389145,-0.263035 z"
           id="path8" /><path
           style="fill:#ffffff;fill-opacity:1;stroke:#ffffff;stroke-width:0.125197;stroke-dasharray:none;stroke-opacity:1"
           d="m 56.125,62.027179 c 0,-0.345432 1.701315,-2.331472 5.002484,-5.839679 3.012004,-3.200906 4.049121,-4.415275 5.007593,-5.863435 1.317538,-1.990671 1.841092,-3.874054 1.689358,-6.077133 -0.07768,-1.127902 -0.219044,-1.911161 -1.003352,-5.559432 -0.424156,-1.972994 -0.451241,-3.669318 -0.07229,-4.527276 0.529687,-1.199223 1.297385,-1.775257 4.421901,-3.31793 2.571255,-1.269512 3.388,-1.792378 4.285348,-2.743414 0.950239,-1.007091 1.502145,-2.226708 1.798277,-3.97388 0.07574,-0.446875 0.181343,-2.359375 0.234669,-4.25 0.05333,-1.890625 0.139885,-3.535938 0.192355,-3.65625 0.499301,-1.144876 3.851759,2.327243 5.563745,5.762336 2.162411,4.338868 2.08058,7.712901 -0.27118,11.18124 -0.471767,0.695756 -1.392456,1.791869 -3.299702,3.928414 -2.679874,3.002062 -3.12866,4.524455 -2.755333,9.34676 0.237468,3.067395 0.173478,3.75224 -0.446769,4.781466 -0.225283,0.373834 -0.81802,1.095734 -1.317191,1.604223 -0.770959,0.785351 -1.119076,1.027886 -2.3125,1.611126 -0.772704,0.37763 -2.505071,1.04734 -3.849704,1.488245 -4.127874,1.353526 -7.011883,2.656346 -9.492712,4.288227 -2.375152,1.562368 -3.375,2.100475 -3.375,1.816392 z m 14.824514,-11.79809 c 1.105555,-1.169414 1.585347,-2.460637 1.594667,-4.291589 0.0074,-1.451083 -0.20816,-2.318028 -0.893507,-3.59375 -0.47073,-0.876226 -0.735403,-1.093745 -0.60839,-0.5 0.04044,0.189062 0.165328,0.765625 0.277523,1.28125 0.151914,0.698174 0.188828,1.336376 0.144599,2.5 -0.07592,1.997442 -0.416941,3.111627 -1.462956,4.77978 -0.413298,0.659115 -0.75145,1.236665 -0.75145,1.283445 0,0.120949 1.09234,-0.816891 1.699514,-1.459136 z"
           id="path9" /><path
           style="fill:#ffffff;fill-opacity:1;stroke:#ffffff;stroke-width:0.125197;stroke-dasharray:none;stroke-opacity:1"
           d="m 80.922181,42.817655 c -0.279015,-0.727101 1.493516,-3.460508 4.46157,-6.880155 1.759982,-2.027765 2.393129,-2.882849 2.856792,-3.858186 C 89.09201,30.288211 89.02397,28.946266 87.932306,26 c -0.690146,-1.86262 -0.96978,-3.249581 -0.982877,-4.875 -0.01296,-1.609066 0.180866,-2.2339 1.053161,-3.394968 0.81526,-1.085151 2.850508,-3.014342 3.978369,-3.771054 1.889807,-1.267923 4.236258,-2.188158 6.802069,-2.667648 1.481072,-0.276777 5.900502,-0.318739 6.623222,-0.06289 0.91397,0.323558 0.56541,0.783163 -1.38808,1.830314 -1.55798,0.835142 -2.41109,1.482668 -3.65112,2.771264 -1.144217,1.189027 -1.975578,2.3422 -2.520238,3.495795 -0.760697,1.611163 -0.618384,3.421963 0.549094,6.986683 1.080099,3.297917 1.302126,4.6492 0.965315,5.875 -0.32497,1.182705 -2.035219,3.162217 -3.593059,4.158756 -1.137391,0.72758 -2.809808,1.456875 -5.455662,2.379061 -4.084348,1.42356 -5.798703,2.182445 -7.25,3.209323 C 82.27324,42.493087 81.351854,43 81.126056,43 c -0.07365,0 -0.16539,-0.08205 -0.203875,-0.182345 z m 9.758013,-19.745864 c 0.39926,-2.285436 0.87553,-3.743424 1.764912,-5.402857 C 93.134367,16.382889 93.253714,16 92.965313,16 c -0.720557,0 -1.975427,2.252435 -2.574344,4.620831 -0.2158,0.853374 -0.264373,1.40685 -0.257509,2.934218 0.0052,1.152996 0.0496,1.785575 0.114629,1.632451 0.05839,-0.1375 0.252841,-1.089569 0.432105,-2.115709 z"
           id="path10" /></g></g></g></svg>
