<?xml version="1.0" encoding="UTF-8" standalone="no"?>
<!-- Created with Inkscape (http://www.inkscape.org/) -->

<svg
   width="380mm"
   height="110mm"
   viewBox="0 0 380 110"
   version="1.1"
   id="svg1"
   xml:space="preserve"
   xmlns="http://www.w3.org/2000/svg"
   xmlns:svg="http://www.w3.org/2000/svg"><defs
     id="defs1" /><g
     id="layer1"
     transform="translate(81.844456,-95.338188)"><g
       transform="matrix(0.03527778,0,0,-0.03527778,-83.784734,203.99375)"
       fill="#000000"
       stroke="none"
       id="g9"><path
         d="m 1521.3062,3013.555 c -4,-3 -7,-159 -7,-345 0,-198 -4,-347 -10,-357 -9,-19 -31,-29 -110,-52 -168,-50 -349,-202 -434.99996,-366 -30,-57 -65,-153 -65,-178 0,-7 -6,-18 -14,-24 -14,-12 -50,-14 -541,-29 l -210,-7 v -105 -105 h 90 c 50,0 217,4 371,9 271,8 282,8 287,-10 3,-11 15,-53 27,-94 18,-66 70,-187 92,-215 3.99996,-5 25.99996,-34 47.99996,-62 54,-71 156,-152.99999 238,-192.99999 37,-18 74,-35 82,-40 8,-4 39,-13 68,-19 86,-21 82,-2 82,-433 V 10.555007 h 100 100 V 393.55501 c 0,291 3,387 13,399 6,9 44,26 82,38 149,47 274,129 361,235.99999 21,27 47,57 56,68 37,41 101,203 114,289 12,79 -11,73 326,81 167,3 333,9 371,13 l 67,6 v 99 c 0,77 -3,100 -15,104 -8,3 -175,2 -372,-3 -197,-5 -366,-5 -375,-1 -9,4 -22,25 -28,45 -6,21 -20,57 -31,80 -10,24 -19,45 -19,48 0,16 -103,156 -141,190 -47,44 -116,92 -164,115 -16,8 -32,17 -35,20 -7,7 -100,41 -140,51 -71,17 -70,10 -70,400 v 349 h -93 c -52,0 -97,-3 -100,-7 z m 156,-1014 c 91,-14 165,-50 234,-112 115,-105 158,-209 151,-362 -3,-82 -8,-101 -40,-166 -59,-118 -173,-222 -283,-260 -53,-17 -202,-14 -261,6 -120,41 -223,134 -281,253 -35,73 -37,81 -37,182 0,85 4,116 23,165 56,149 207,272 359,294 31,5 58,9 60,10 2,0 35,-4 75,-10 z"
         id="path1" /><path
         d="m 8369.3062,2315.555 c -5,-2 -35,-11 -65,-20 -147,-44 -283,-136 -357,-240 -178,-251 -211,-578 -92,-904 86,-234.99999 255,-366.99999 535,-419.99999 126,-23 293,-8 427,38 222,77 365,257.99999 432,545.99999 18,79 21,331 4,402 -39,166 -112,313 -200,402 -79,79 -213,150 -349,185 -55,14 -301,22 -335,11 z m 300,-278 c 112,-35 202,-112 252,-217 45,-94 58,-158 58,-300 0,-171 -20,-244 -94,-353 -54,-80 -59,-83 -152,-130 -81,-41.00002 -108,-49.00002 -170,-54.00002 -96,-7 -182,15 -270,68.00002 -99,59 -145,120 -190,249 -21,57 -23,84 -24,220 0,167 11,223 62,323 37,75 117,140 223,184 45,18 74,23 160,23 58,0 123,-6 145,-13 z"
         id="path2"
         style="fill:#ec1008;fill-opacity:1" /><path
         d="m 3540.3062,2292.555 c -2,-4 -5,-63 -7,-132 l -4,-125 209,-3 c 134,-1 214,-6 223,-13 10,-9 13,-129 13,-635 0,-482.99999 3,-624.99999 12,-629.99999 18,-11 179,-18 233,-10 l 45,7 V 1379.555 c 0,-449.47774 4.1423,626.0021 12,639 6.5848,10.8922 72,12 220,12 159,0 208,3 209,13 6,54 -5,243 -15,249 -14,10 -1144,9 -1150,0 z"
         id="path3"
         style="fill:#ec1008;fill-opacity:1" /><path
         d="m 4929.3062,2292.555 c -3,-3 -5,-349 -5,-769 0,-717.99999 1,-763.99999 18,-770.99999 9,-4 261,-7 560,-7 471,0 544,2 553,15 9,15 4,223.99997 -7,241.99999 -3,4 -187,8 -409,8 -389,0 -405,1 -415,19 -14,27 -14,368 1,376 5,4 175,8 377,9 l 367,2 v 129 130 h -368 c -316,0 -369,2 -377,15 -5,8 -10,86 -10,172 0,143 2,157 18,162 10,4 189,6 398,5 208,-1 385,-1 392,0 9,1 12,34 12,131 0,97 -3,130 -12,130 -7,0 -255,1 -551,3 -295,2 -539,1 -542,-1 z"
         id="path4"
         style="fill:#ec1008;fill-opacity:1" /><path
         d="m 7288.3062,2292.555 c -22,-3 -102,-83 -189,-187 -27,-33 -74,-85 -105,-116 -76,-77 -158,-165 -204,-222 -21,-26 -51,-61 -65,-76 -14,-16 -36,-41 -49,-55 -13,-15 -31,-26 -40,-24 -16,3 -17,31 -19,328 -1,179 -3,331 -3,338 0,9 -35,12 -140,12 h -140 l -2,-761 c -2,-539.00002 0,-762.99999 8,-769.99999 12,-10 262,-14 272,-4 4,3 5,107 3,230.99997 l -3,224.00002 131,130 c 90,90 135,128 146,124 8,-4 28,-27 42,-53 15,-25 50,-80 78,-121 28,-41 75,-115 105,-164 29,-49 76,-123 104,-164.99999 28,-42 67,-105 86,-139 23,-41 43,-65 60,-69 45,-14 288,-9 302,5 14,14 22,0 -87,165 -38,57.99997 -115,176.99999 -169,263.99999 -54,87 -134,212 -176,278 -153,239 -158,250 -119,283 64,55 529,525 529,536 0,10 -37,12 -167,12 -93,-1 -178,-2 -189,-4 z"
         id="path5"
         style="fill:#ec1008;fill-opacity:1" /><path
         d="m 9514.3062,2278.555 c 0,-7 -2,-348 -5,-758 -3,-410 -2,-749.99999 2,-756.99999 9,-13 251,-27 270,-15 10,6 13,120 15,491.99999 3,422 5,485 18,487 9,2 25,-16 41,-49 26,-52 231.9998,-398 423.9998,-713.00002 54,-87.99997 103,-169.99997 109,-181.99997 18,-36 50,-43 186,-43 118,0 130,2 140,19 7,13 10,273.99999 10,774.99999 v 756 h -145 -145 v -494 c 0,-272 -4,-497 -8,-500 -14,-9 -29,8 -60,69 -16,33 -94,166 -173,295 -78,129 -156,260 -174,290 -17,30 -57.9998,96 -90.9998,147 -32,51 -72,114 -89,140 l -30,48 -147,3 c -115,2 -148,0 -148,-10 z"
         id="path6"
         style="fill:#ec1008;fill-opacity:1" /><path
         d="m 5882.3062,605.55501 c -6,-6 -2149,-18 -2599,-15 -217,1 -339,-2 -343,-8 -3,-6 14,-13 42,-17 45,-7 6038,-13 7194.9998,-7 493,2 547,4 547,18 0,13 -8,15 -37,12 -21,-3 -117,-1 -213,4 -173,9 -4583.9998,21 -4591.9998,13 z"
         id="path7"
         style="fill:#ec1008;fill-opacity:1" /><path
         d="m 2600.3062,592.55501 c -13,-21 19,-25 199,-23 73,1 95,4 83,12 -26,14 -273,24 -282,11 z"
         id="path8"
         style="fill:#ec1008;fill-opacity:1" /></g></g></svg>
